<svg width="44" height="44" viewBox="0 0 44 44" fill="none" xmlns="http://www.w3.org/2000/svg">
<g id="teenyicons:computer-outline" clip-path="url(#clip0_1_693)">
<path id="Vector" d="M27.3668 42.0357H11.6246M18.7802 33.4491V42.0357M24.5046 16.2759H41.6778M28.7979 33.4491H37.3845M27.3668 42.0357H38.8156C39.5747 42.0357 40.3027 41.7342 40.8395 41.1974C41.3762 40.6606 41.6778 39.9326 41.6778 39.1735V4.82705C41.6778 4.06794 41.3762 3.33993 40.8395 2.80316C40.3027 2.2664 39.5747 1.96484 38.8156 1.96484H27.3668C26.6077 1.96484 25.8797 2.2664 25.3429 2.80316C24.8061 3.33993 24.5046 4.06794 24.5046 4.82705V39.1735C24.5046 39.9326 24.8061 40.6606 25.3429 41.1974C25.8797 41.7342 26.6077 42.0357 27.3668 42.0357ZM4.46914 10.5515H24.5046V33.4491H4.46914C3.71003 33.4491 2.98202 33.1475 2.44525 32.6108C1.90849 32.074 1.60693 31.346 1.60693 30.5869V13.4137C1.60693 12.6546 1.90849 11.9265 2.44525 11.3898C2.98202 10.853 3.71003 10.5515 4.46914 10.5515V10.5515Z" stroke="black" stroke-width="2.8622"/>
</g>
<defs>
<clipPath id="clip0_1_693">
<rect width="42.9331" height="42.9331" fill="white" transform="translate(0.175537 0.533447)"/>
</clipPath>
</defs>
</svg>
