<svg width="36" height="36" viewBox="0 0 36 36" fill="none" xmlns="http://www.w3.org/2000/svg">
<g id="ion:logo-apple">
<path id="Vector" d="M24.5164 9.98047C21.7489 9.98047 20.5793 11.2795 18.6519 11.2795C16.6758 11.2795 15.1685 9.98992 12.7702 9.98992C10.4228 9.98992 7.91951 11.3997 6.32984 13.8012C4.0977 17.1878 4.47659 23.566 8.0918 28.9997C9.38496 30.9449 11.1119 33.1263 13.377 33.1499H13.4182C15.3867 33.1499 15.9715 31.882 18.6807 31.8671H18.7219C21.3906 31.8671 21.926 33.1425 23.8863 33.1425H23.9275C26.1926 33.1189 28.0122 30.7018 29.3053 28.7641C30.2361 27.3706 30.582 26.6711 31.2959 25.0946C26.0663 23.142 25.2261 15.8496 30.3981 13.0538C28.8194 11.1093 26.601 9.98317 24.5095 9.98317L24.5164 9.98047Z" fill="white"/>
<path id="Vector_2" d="M23.9155 2.94434C22.2682 3.05439 20.3463 4.08603 19.2206 5.43297C18.1993 6.65366 17.3591 8.46444 17.6886 10.2205H17.8204C19.5748 10.2205 21.3704 9.18146 22.4192 7.85004C23.4296 6.58277 24.1956 4.78685 23.9155 2.94434Z" fill="white"/>
</g>
</svg>
