<svg width="39" height="36" viewBox="0 0 39 36" fill="none" xmlns="http://www.w3.org/2000/svg">
<g id="Google Playstore">
<path id="Vector" d="M3.7771 4.80055V31.3343C3.7773 31.3919 3.79657 31.4481 3.83251 31.496C3.86844 31.5438 3.91943 31.5811 3.97909 31.6033C4.03875 31.6254 4.10441 31.6314 4.16785 31.6204C4.23129 31.6094 4.28968 31.582 4.3357 31.5416L19.8455 18.0681L4.3357 4.59328C4.28968 4.55286 4.23129 4.52545 4.16785 4.51447C4.10441 4.5035 4.03875 4.50945 3.97909 4.53159C3.91943 4.55372 3.86844 4.59106 3.83251 4.6389C3.79657 4.68675 3.7773 4.74298 3.7771 4.80055ZM26.3486 12.5318L6.90134 2.98775L6.88921 2.98167C6.5542 2.81963 6.23587 3.22338 6.51024 3.45833L21.7548 16.443L26.3486 12.5318ZM6.51176 32.6779C6.23587 32.9128 6.5542 33.3166 6.89073 33.1545L6.90286 33.1485L26.3486 23.6044L21.7548 19.6919L6.51176 32.6779ZM34.1994 16.3802L28.7688 13.716L23.6625 18.0681L28.7688 22.4182L34.1994 19.756C35.6767 19.0289 35.6767 17.1074 34.1994 16.3802Z" fill="white"/>
</g>
</svg>
