<svg viewBox="0,0 75,75" width="60" height="60" >
<path d="M20.7854 65.7535C19.8712 65.7518 18.9732 65.5121 18.1797 65.0581C16.393 64.0456 15.2822 62.0802 15.2822 59.9466V16.7671C15.2822 14.6275 16.393 12.668 18.1797 11.6556C18.9921 11.1887 19.915 10.9486 20.8519 10.9604C21.7888 10.9722 22.7053 11.2354 23.5057 11.7226L60.4092 33.8126C61.1783 34.2948 61.8123 34.9645 62.2518 35.7588C62.6913 36.5531 62.9219 37.4461 62.9219 38.3539C62.9219 39.2617 62.6913 40.1546 62.2518 40.9489C61.8123 41.7432 61.1783 42.4129 60.4092 42.8951L23.4997 64.9911C22.6806 65.4863 21.7425 65.7498 20.7854 65.7535Z" fill="white"/>
</svg>
